<svg xmlns="http://www.w3.org/2000/svg" viewBox="0 0 150 29.3" class="jw-svg-icon jw-svg-icon-watermark" focusable="false"><path d="M37,16.68c0,2.4-.59,3.43-2.4,3.43a5.75,5.75,0,0,1-3.38-1.23v3.58a7.39,7.39,0,0,0,3.67,1c3.67,0,5.73-1.91,5.73-6.32V5.86H37Z"/><polygon points="58.33 17.61 55.39 6.01 52.55 6.01 49.52 17.61 46.73 6.01 43.06 6.01 47.56 23.29 50.89 23.29 53.92 11.88 56.96 23.29 60.24 23.29 64.74 6.01 61.17 6.01 58.33 17.61"/><path d="M73.84,6H67.47V23.29h2.2v-6.9h4.17c3.47,0,5.77-1.77,5.77-5.19S77.31,6,73.84,6Zm0,8.47H69.72V8h4.12c2.3,0,3.57,1.22,3.62,3.28C77.46,13.21,76.19,14.48,73.84,14.48Z"/><path d="M99.2,6l-6,15.27H85V6H82.8V23.29H94.7l2-5.19h7.09l2,5.19H108L101.26,6ZM97.39,16.14l2.84-7.39L103,16.14Z"/><polygon points="113.98 14.18 108.99 6.01 106.59 6.01 112.81 16.14 112.81 23.29 115.01 23.29 115.01 16.14 121.33 6.01 118.98 6.01 113.98 14.18"/><polygon points="123.14 23.29 134.1 23.29 134.1 21.28 125.29 21.28 125.29 15.41 133.32 15.41 133.32 13.45 125.29 13.45 125.29 7.97 134.1 7.97 134.1 6.01 123.14 6.01 123.14 23.29"/><path d="M144.86,15.85c2.74-.39,4.41-2,4.41-4.85,0-3.23-2.26-5-5.73-5h-6.32V23.29h2.22V16h3.08l4.94,7.29H150Zm-5.42-1.71V8h4.06c2.3,0,3.62,1.17,3.62,3.08s-1.32,3.09-3.62,3.09Z"/><path d="M27.63.09a1,1,0,0,0-1.32.48c-.24.51-6.35,15.3-6.35,15.3-.2.46-.33.41-.33-.07,0,0,0-5.15,0-9.39,0-2.31-1.12-3.61-2.73-3.88A3.12,3.12,0,0,0,14.83,3a4.57,4.57,0,0,0-1.5,1.79c-.48.94-3.47,9.66-3.47,9.66-.16.46-.31.44-.31,0,0,0-.09-3.76-.18-4.64-.13-1.36-.44-3.59-2.2-3.7S4.77,8,4.36,9.24c-.29.84-1.65,5.35-1.65,5.35l-.2.46h0c-.06.24-.17.24-.24,0l-.11-.42Q2,14,1.74,13.31a1.71,1.71,0,0,0-.33-.66.83.83,0,0,0-.88-.22.82.82,0,0,0-.53.69,4.22,4.22,0,0,0,.07.79,29,29,0,0,0,1,4.6,1.31,1.31,0,0,0,1.8.66,3.43,3.43,0,0,0,1.24-1.81c.33-.81,2-5.48,2-5.48.18-.46.31-.44.29,0,0,0-.09,4.57-.09,6.64a13.11,13.11,0,0,0,.28,2.93,2.41,2.41,0,0,0,.82,1.27,2,2,0,0,0,1.41.4,2,2,0,0,0,.7-.24,3.15,3.15,0,0,0,.79-.71,12.52,12.52,0,0,0,1.26-2.11c.81-1.6,2.92-6.58,2.92-6.58.2-.46.33-.41.33.07,0,0-.26,8.36-.26,11.55a6.39,6.39,0,0,0,.44,2.33,2.8,2.8,0,0,0,1.45,1.61A2.57,2.57,0,0,0,18.79,29a3.76,3.76,0,0,0,1.28-1.32,15.12,15.12,0,0,0,1.07-2.31c.64-1.65,1.17-3.33,1.7-5s5-17.65,5.28-19a1.79,1.79,0,0,0,0-.46A1,1,0,0,0,27.63.09Z"/></svg>